#!OML:ASF I:\golf\golf\golf 2\Subject 1\2002-09-07\Subject1.ASF
:FULLY-SPECIFIED
:DEGREES
243
root -10.2292 17.9607 5.42204 -32.1261 81.5662 -47.7697
lowerback 4.01666 1.55078 -2.93979
upperback 5.79302 2.11514 2.6212
thorax 3.53598 0.949247 4.34702
lowerneck -12.2667 1.00136 3.88706
upperneck 42.1962 4.98812 -4.91669
head 18.0095 2.60749 -1.89672
rclavicle -6.06293e-015 1.27222e-014
rhumerus -11.1293 24.3225 -100.811
rradius 37.9583
rwrist -41.9945
rhand -31.8345 -10.7719
rfingers 7.12502
rthumb -5.08896 -40.6908
lclavicle -6.06293e-015 1.27222e-014
lhumerus -9.18269 -38.622 105.748
lradius 35.4129
lwrist 49.2079
lhand -2.50934 55.5218
lfingers 7.12502
lthumb 23.1848 84.1464
rfemur -30.3307 -0.0294135 19.0785
rtibia 26.2014
rfoot -6.85685 -1.23745
rtoes -1.45957
lfemur -29.1369 7.27633 -9.04527
ltibia 31.0792
lfoot -12.2301 0.619638
ltoes -11.8328
244
root -10.2285 17.9663 5.41412 -33.7814 81.7772 -49.4412
lowerback 4.00473 1.54281 -2.83033
upperback 5.8154 2.10705 2.70009
thorax 3.56746 0.94784 4.36878
lowerneck -12.2507 0.939422 3.79372
upperneck 42.1574 4.91637 -4.90527
head 17.9725 2.56752 -1.88594
rclavicle -1.00386e-014 -1.95803e-014
rhumerus -11.0882 24.4017 -100.759
rradius 37.9522
rwrist -42.0356
rhand -31.8435 -10.7696
rfingers 7.12502
rthumb -5.09765 -40.6883
lclavicle -1.00386e-014 -1.95803e-014
lhumerus -9.15261 -38.7281 105.774
lradius 35.4043
lwrist 49.3841
lhand -2.40177 55.3454
lfingers 7.12502
lthumb 23.288 83.957
rfemur -30.2743 -0.208875 19.1048
rtibia 26.1602
rfoot -6.81597 -1.40732
rtoes -1.6288
lfemur -29.1414 6.97421 -8.93474
ltibia 30.9817
lfoot -12.2354 0.336256
ltoes -10.5997
245
root -10.227 17.9691 5.40495 -35.1493 82.0942 -50.8258
lowerback 3.98029 1.47065 -2.80321
upperback 5.83868 2.01268 2.74305
thorax 3.61422 0.900202 4.40132
lowerneck -12.2472 0.931443 3.63173
upperneck 42.1204 4.91863 -4.82723
head 17.941 2.5532 -1.81808
rclavicle 1.21259e-014 1.27222e-014
rhumerus -11.0089 24.4815 -100.759
rradius 37.8419
rwrist -41.9225
rhand -31.5128 -10.8216
rfingers 7.12502
rthumb -4.77835 -40.7477
lclavicle 1.21259e-014 1.27222e-014
lhumerus -9.10463 -38.7594 105.783
lradius 35.3892
lwrist 49.7671
lhand -3.23275 55.4895
lfingers 7.12502
lthumb 22.4906 84.1998
rfemur -30.1966 -0.438761 18.9784
rtibia 26.0946
rfoot -6.78519 -1.5375
rtoes -1.46375
lfemur -29.211 6.83366 -9.08004
ltibia 30.8753
lfoot -12.1619 0.125941
ltoes -10.844
246
root -10.2252 17.973 5.39772 -36.1977 82.3887 -51.8832
lowerback 3.96346 1.43144 -2.84451
upperback 5.85811 1.96093 2.78002
thorax 3.64709 0.871507 4.46525
lowerneck -12.2637 0.905195 3.49001
upperneck 42.1035 4.90374 -4.78071
head 17.9278 2.53177 -1.77196
rclavicle -3.8763e-015 -5.1684e-015
rhumerus -10.9644 24.548 -100.733
rradius 37.76
rwrist -41.8743
rhand -31.2295 -10.7043
rfingers 7.12502
rthumb -4.50473 -40.6364
lclavicle -3.8763e-015 -5.1684e-015
lhumerus -9.02703 -38.6237 105.798
lradius 35.4095
lwrist 49.8002
lhand -3.66184 55.639
lfingers 7.12502
lthumb 22.0787 84.3985
rfemur -30.1152 -0.654426 18.8267
rtibia 26.0292
rfoot -6.827 -1.62257
rtoes -1.6198
lfemur -29.2475 6.71409 -9.24874
ltibia 30.7717
lfoot -12.0957 -0.112946
ltoes -10.5598
247
root -10.2238 17.9779 5.38899 -37.9288 82.5571 -53.588
lowerback 4.02149 1.42242 -2.78287
upperback 5.86835 1.94932 2.87471
thorax 3.62527 0.867656 4.52812
lowerneck -12.2776 0.842013 3.42302
upperneck 42.1222 4.86885 -4.85199
head 17.9414 2.50133 -1.79866
rclavicle -2.57923e-014 -4.14963e-014
rhumerus -11.0123 24.7115 -100.695
rradius 37.7674
rwrist -41.9548
rhand -31.3148 -10.3419
rfingers 7.12502
rthumb -4.58711 -40.2722
lclavicle -2.57923e-014 -4.14963e-014
lhumerus -8.93448 -38.4371 105.826
lradius 35.3796
lwrist 49.5791
lhand -3.2848 55.4656
lfingers 7.12502
lthumb 22.4406 84.1819
rfemur -30.0117 -0.757241 18.8206
rtibia 25.9972
rfoot -6.87751 -1.7863
rtoes -1.52479
lfemur -29.225 6.59765 -9.24606
ltibia 30.6511
lfoot -12.0435 -0.305701
ltoes -10.3583
248
root -10.2219 17.9807 5.38091 -39.5892 82.7425 -55.2669
lowerback 4.03113 1.45853 -2.65976
upperback 5.85278 1.9993 2.88647
thorax 3.60128 0.898312 4.46922
lowerneck -12.2591 0.746366 3.49397
upperneck 42.1368 4.73704 -4.91013
head 17.9393 2.45729 -1.86213
rclavicle -1.9133e-014 -5.94863e-014
rhumerus -11.1366 24.8072 -100.679
rradius 37.9468
rwrist -42.0933
rhand -31.558 -10.36
rfingers 7.12502
rthumb -4.822 -40.2851
lclavicle -1.9133e-014 -5.94863e-014
lhumerus -8.95578 -38.445 105.819
lradius 35.3561
lwrist 49.4136
lhand -3.38962 55.4831
lfingers 7.12502
lthumb 22.34 84.2115
rfemur -29.9664 -0.808431 18.7743
rtibia 25.9883
rfoot -6.84859 -2.04972
rtoes -1.5406
lfemur -29.2579 6.51631 -9.28869
ltibia 30.5195
lfoot -11.9914 -0.523832
ltoes -10.2959
249
root -10.2204 17.9822 5.37546 -40.6906 83.0479 -56.413
lowerback 4.00143 1.51358 -2.62545
upperback 5.8366 2.07439 2.79694
thorax 3.59727 0.938927 4.35551
lowerneck -12.2569 0.651401 3.63382
upperneck 42.1304 4.54634 -4.89525
head 17.9226 2.40858 -1.91434
rclavicle -3.39922e-014 -4.41799e-014
rhumerus -11.2137 24.849 -100.729
rradius 38.1291
rwrist -42.1907
rhand -31.7335 -10.9203
rfingers 7.12502
rthumb -4.99144 -40.8416
lclavicle -3.39922e-014 -4.41799e-014
lhumerus -9.02238 -38.5434 105.779
lradius 35.3257
lwrist 49.2218
lhand -3.67395 55.4675
lfingers 7.12502
lthumb 22.067 84.2285
rfemur -29.9607 -1.01284 18.6108
rtibia 25.9839
rfoot -6.79934 -2.24881
rtoes -1.91387
lfemur -29.3476 6.47952 -9.51741
ltibia 30.3952
lfoot -11.9214 -0.779491
ltoes -10.4357
250
root -10.2199 17.9825 5.36938 -42.788 83.3501 -58.5348
lowerback 4.01111 1.50408 -2.5518
upperback 5.82275 2.06348 2.75912
thorax 3.58144 0.937736 4.2738
lowerneck -12.2241 0.593596 3.7254
upperneck 42.1067 4.42056 -4.86862
head 17.8907 2.37911 -1.94037
rclavicle -9.59136e-015 5.889e-015
rhumerus -11.1973 24.9764 -100.843
rradius 38.1042
rwrist -42.1457
rhand -31.6043 -11.4696
rfingers 7.12502
rthumb -4.86666 -41.3937
lclavicle -9.59136e-015 5.889e-015
lhumerus -9.09272 -38.6071 105.754
lradius 35.4308
lwrist 49.2401
lhand -3.8934 55.3478
lfingers 7.12502
lthumb 21.8563 84.1335
rfemur -29.9142 -1.22224 18.5133
rtibia 25.9627
rfoot -6.79009 -2.48456
rtoes -2.148
lfemur -29.4982 6.55105 -9.7718
ltibia 30.2747
lfoot -11.7502 -0.89539
ltoes -12.2828
251
root -10.2174 17.9832 5.36738 -46.3321 83.521 -62.1038
lowerback 3.98578 1.49777 -2.36942
upperback 5.82278 2.05854 2.81712
thorax 3.59929 0.941651 4.23225
lowerneck -12.1783 0.506449 3.70281
upperneck 42.0685 4.25149 -4.76935
head 17.8374 2.32344 -1.91888
rclavicle 7.40939e-015 3.76759e-014
rhumerus -11.1154 24.849 -100.869
rradius 38.0069
rwrist -42.0513
rhand -31.112 -11.4866
rfingers 7.12502
rthumb -4.3913 -41.4211
lclavicle 7.40939e-015 3.76759e-014
lhumerus -9.16886 -38.9476 105.734
lradius 35.6566
lwrist 49.6154
lhand -4.27413 55.3944
lfingers 7.12502
lthumb 21.4907 84.2223
rfemur -29.8258 -1.26613 18.5804
rtibia 25.9039
rfoot -6.78373 -2.85345
rtoes -2.08833
lfemur -29.6392 6.55388 -9.78479
ltibia 30.1606
lfoot -11.5853 -1.00198
ltoes -14.1555
